# xmcd
#
# Track frame offsets: 
#        150
#        14924
#        28523
#        43681
#        58597
#        71572
#        86527
#        101061
#        114532
#        130027
#        143973
#        158095
#        171267
#        185121
#        200713
#        215086
#        229690
#        243045
#        256193
#        268529
#
# Disc length: 3743 seconds
#
# Revision: 2
# Processed by: cddbd v1.5.2PL0 Copyright (c) Steve Scherf et al.
# Submitted via: ExactAudioCopyFreeDBPlugin 1.0
#
DISCID=250e9d14
DTITLE=Louis Armstrong - Louis Armstrong Box - CD15 La Vie En Rose
DYEAR=1900
DGENRE=Jazz
TTITLE0=Some Day (You'll Be Sorry) (10.6.1947)
TTITLE1=Fifty - Fifty Blues (10.6.1947)
TTITLE2=A Song Was Born (Chicago 16.10.1947)
TTITLE3=Please Stop Playing Those Blues (Chicago 16.10.1947)
TTITLE4=Before Long (Chicago 16.10.1947)
TTITLE5=Lovely Weather We're Having (Chicago 16.10.1947)
TTITLE6=Maybe It's Because (1.9.1949)
TTITLE7=I'll Keep The Lovelight Burning (1.9.1949)
TTITLE8=La Vie En Rose (26.6.1950)
TTITLE9=C'est Si Bon (26.6.1950)
TTITLE10=That Lucky Old Sun (6.6.1949)
TTITLE11=Blueberry Hill (6.6.1949)
TTITLE12=A Kiss to Build a Dream On (24.7.1951)
TTITLE13=I Get Ideas (24.7.1951)
TTITLE14=Cold, Cold Heart (27.9.1951)
TTITLE15=Because of You (27.9.1951)
TTITLE16=I Laughed at Love (25.8.1952)
TTITLE17=Takes Two to Tango (25.8.1952)
TTITLE18=Your Cheatin' Heart (23.2.1953)
TTITLE19=Congratulations to Someone (23.2.1953)
EXTD=
EXTT0=
EXTT1=
EXTT2=
EXTT3=
EXTT4=
EXTT5=
EXTT6=
EXTT7=
EXTT8=
EXTT9=
EXTT10=
EXTT11=
EXTT12=
EXTT13=
EXTT14=
EXTT15=
EXTT16=
EXTT17=
EXTT18=
EXTT19=
PLAYORDER=
